<svg width="21" height="18" viewBox="0 0 21 18" fill="none" xmlns="http://www.w3.org/2000/svg">
<path d="M20.1314 15.3379H1.00931C0.529274 15.3379 0.140137 15.9338 0.140137 16.6689C0.140137 17.404 0.529274 17.9999 1.00931 17.9999H20.1314C20.6114 17.9999 21.0006 17.404 21.0006 16.6689C21.0006 15.9338 20.6115 15.3379 20.1314 15.3379Z" fill="white"/>
<path d="M20.131 7.5918H1.00882C0.528786 7.5918 0.139648 8.18776 0.139648 8.92285C0.139648 9.65794 0.528786 10.2538 1.00882 10.2538H20.1309C20.611 10.2538 21.0001 9.65794 21.0001 8.92285C21.0001 8.18776 20.611 7.5918 20.131 7.5918Z" fill="white"/>
<path d="M19.9913 0H0.869173C0.389138 0 0 0.595912 0 1.33102C0 2.06613 0.389138 2.66205 0.869173 2.66205H19.9913C20.4713 2.66205 20.8604 2.06613 20.8604 1.33102C20.8605 0.595912 20.4713 0 19.9913 0Z" fill="white"/>
</svg>
