<svg width="12" height="27" viewBox="0 0 12 27" fill="none" xmlns="http://www.w3.org/2000/svg">
<path d="M4.1546 7.1823C5.79478 5.5422 8.60987 6.71825 8.60987 9.02774C8.60987 9.9639 9.36878 10.7228 10.3049 10.7228C11.2411 10.7228 12 9.9639 12 9.02774C12 6.30797 10.1804 4.00656 7.6951 3.27316V2.13989C7.6951 1.20373 6.9362 0.444824 6.00004 0.444824C5.06388 0.444824 4.30498 1.20373 4.30498 2.13989V3.27041C1.41804 4.11601 -0.444914 7.00843 0.213578 10.0494C0.618859 11.9212 1.91502 13.4753 3.68071 14.2067L7.02208 15.5907C8.56741 16.2309 9.03001 18.2143 7.91191 19.4142C6.30782 21.1332 3.39013 20.0072 3.39013 17.6375C3.39013 16.7014 2.63122 15.9425 1.69506 15.9425C0.758904 15.9425 0 16.7014 0 17.6375C0 20.2859 1.75044 22.6468 4.3049 23.3909V24.5255C4.3049 25.4616 5.0638 26.2205 5.99996 26.2205C6.93612 26.2205 7.69502 25.4616 7.69502 24.5255V23.3886C8.64071 23.1129 9.50721 22.6083 10.2205 21.9022C13.1669 18.9877 12.112 14.0296 8.31929 12.4586L4.97792 11.0746C3.41515 10.4273 2.94578 8.3933 4.1546 7.1823V7.1823Z" fill="white"/>
</svg>
