<svg width="26" height="26" viewBox="0 0 26 26" fill="none" xmlns="http://www.w3.org/2000/svg">
<path d="M14.269 3.25H9.74984C7.70708 3.25 6.68571 3.25 6.05111 3.8846C5.4165 4.5192 5.4165 5.54058 5.4165 7.58333V18.4167C5.4165 20.4594 5.4165 21.4808 6.05111 22.1154C6.68571 22.75 7.70708 22.75 9.74984 22.75H16.2498C18.2926 22.75 19.314 22.75 19.9486 22.1154C20.5832 21.4808 20.5832 20.4594 20.5832 18.4167V9.56413C20.5832 9.12132 20.5832 8.89991 20.5007 8.70082C20.4182 8.50174 20.2617 8.34518 19.9486 8.03207L15.8011 3.8846C15.488 3.57149 15.3314 3.41493 15.1323 3.33246C14.9333 3.25 14.7119 3.25 14.269 3.25Z" stroke="white" stroke-width="2.16667"/>
<path d="M9.75 14.0835L16.25 14.0835" stroke="white" stroke-width="2.16667" stroke-linecap="round"/>
<path d="M9.75 18.4165L14.0833 18.4165" stroke="white" stroke-width="2.16667" stroke-linecap="round"/>
<path d="M14.0835 3.25V7.58333C14.0835 8.60471 14.0835 9.1154 14.4008 9.4327C14.7181 9.75 15.2288 9.75 16.2502 9.75H20.5835" stroke="white" stroke-width="2.16667"/>
</svg>
