<svg width="15" height="14" viewBox="0 0 15 14" fill="none" xmlns="http://www.w3.org/2000/svg">
<g clip-path="url(#clip0_92_2431)">
<path d="M12.4808 9.20484C11.7166 9.14195 10.9778 8.96101 10.2875 8.66851C9.95109 8.52068 9.5503 8.58027 9.30362 8.7937L7.80961 9.74025C6.26653 8.74601 5.31853 7.62872 4.60069 5.95657L5.74727 4.66828C6.02888 4.4295 6.15348 4.05633 6.07132 3.69046C5.894 2.95698 5.83568 2.19783 5.89846 1.43486C5.94284 0.895559 5.54009 0.420588 5.00079 0.376211L2.7184 0.1884C2.17909 0.144022 1.70412 0.546769 1.65974 1.08607C1.14198 7.37826 5.8404 12.9192 12.1326 13.437C12.6719 13.4814 13.1469 13.0786 13.1912 12.5393L13.3785 10.2635C13.4229 9.72418 13.0201 9.24921 12.4808 9.20484Z" fill="black"/>
</g>
<defs>
<clipPath id="clip0_92_2431">
<rect width="12.4319" height="12.4319" fill="white" transform="translate(1.74023 0.10791) rotate(4.70409)"/>
</clipPath>
</defs>
</svg>
