<svg width="26" height="26" viewBox="0 0 26 26" fill="none" xmlns="http://www.w3.org/2000/svg">
<path d="M20.8522 7.7128L15.9795 8.31626L16.5806 5.3234C16.7661 4.38926 16.6405 3.42006 16.2229 2.56407C15.8054 1.70808 15.119 1.01244 14.2686 0.583557C13.6331 0.269936 12.9006 0.215334 12.2256 0.431261C11.5506 0.647187 10.9858 1.11677 10.6502 1.74102L6.36619 9.81535C6.13724 9.64564 5.85177 9.57053 5.56894 9.60558L1.13324 10.1549C0.839133 10.1914 0.571543 10.3431 0.389334 10.5768C0.207126 10.8106 0.125225 11.1071 0.161649 11.4012L1.8097 24.7083C1.84612 25.0024 1.99789 25.27 2.23161 25.4522C2.46532 25.6344 2.76185 25.7163 3.05596 25.6799L7.49166 25.1306C7.78577 25.0941 8.05336 24.9424 8.23557 24.7086C8.41778 24.4749 8.49968 24.1784 8.46325 23.8843L8.44512 23.7379L10.1799 24.6085C10.3773 24.707 10.5994 24.7453 10.8184 24.7185L20.7988 23.4825C21.0049 23.4571 21.1998 23.3747 21.3617 23.2447C21.5236 23.1147 21.646 22.9421 21.7153 22.7464L24.7669 14.13C25.011 13.4372 25.0916 12.6974 25.0024 11.9683L24.8626 10.8394C24.7443 9.89345 24.2556 9.03307 23.5038 8.44695C22.752 7.86083 21.7984 7.59681 20.8522 7.7128ZM6.10806 23.05L3.89021 23.3247L2.51684 12.2354L4.73469 11.9608L6.10806 23.05ZM22.7846 12.2429C22.8315 12.6279 22.789 13.0185 22.6602 13.3843L19.8388 21.3495L10.8764 22.4595L8.1151 21.0732L7.13314 13.1443L12.6251 2.78676C12.6837 2.67503 12.7839 2.59083 12.9041 2.55236C13.0243 2.51388 13.1547 2.52421 13.2673 2.58112C13.6805 2.78926 14.014 3.12708 14.2168 3.54285C14.4195 3.95862 14.4804 4.4294 14.3901 4.88309L13.4852 9.39531C13.4504 9.56862 13.4572 9.74772 13.5051 9.91789C13.5529 10.0881 13.6404 10.2445 13.7605 10.3742C13.8805 10.504 14.0296 10.6034 14.1956 10.6644C14.3615 10.7253 14.5395 10.746 14.715 10.7247L21.1268 9.93065C21.485 9.88659 21.846 9.98647 22.1306 10.2083C22.4152 10.4302 22.6001 10.756 22.6448 11.1141L22.7846 12.2429Z" fill="white"/>
<path d="M20.8522 7.7128L15.9795 8.31626L16.5806 5.3234C16.7661 4.38926 16.6405 3.42006 16.2229 2.56407C15.8054 1.70808 15.119 1.01244 14.2686 0.583557C13.6331 0.269936 12.9006 0.215334 12.2256 0.431261C11.5506 0.647187 10.9858 1.11677 10.6502 1.74102L6.36619 9.81535C6.13724 9.64564 5.85177 9.57053 5.56894 9.60558L1.13324 10.1549C0.839133 10.1914 0.571543 10.3431 0.389334 10.5768C0.207126 10.8106 0.125225 11.1071 0.161649 11.4012L1.8097 24.7083C1.84612 25.0024 1.99789 25.27 2.23161 25.4522C2.46532 25.6344 2.76185 25.7163 3.05596 25.6799L7.49166 25.1306C7.78577 25.0941 8.05336 24.9424 8.23557 24.7086C8.41778 24.4749 8.49968 24.1784 8.46325 23.8843L8.44512 23.7379L10.1799 24.6085C10.3773 24.707 10.5994 24.7453 10.8184 24.7185L20.7988 23.4825C21.0049 23.4571 21.1998 23.3747 21.3617 23.2447C21.5236 23.1147 21.646 22.9421 21.7153 22.7464L24.7669 14.13C25.011 13.4372 25.0916 12.6974 25.0024 11.9683L24.8626 10.8394C24.7443 9.89345 24.2556 9.03307 23.5038 8.44695C22.752 7.86083 21.7984 7.59681 20.8522 7.7128ZM6.10806 23.05L3.89021 23.3247L2.51684 12.2354L4.73469 11.9608L6.10806 23.05ZM22.7846 12.2429C22.8315 12.6279 22.789 13.0185 22.6602 13.3843L19.8388 21.3495L10.8764 22.4595L8.1151 21.0732L7.13314 13.1443L12.6251 2.78676C12.6837 2.67503 12.7839 2.59083 12.9041 2.55236C13.0243 2.51388 13.1547 2.52421 13.2673 2.58112C13.6805 2.78926 14.014 3.12708 14.2168 3.54285C14.4195 3.95862 14.4804 4.4294 14.3901 4.88309L13.4852 9.39531C13.4504 9.56862 13.4572 9.74772 13.5051 9.91789C13.5529 10.0881 13.6404 10.2445 13.7605 10.3742C13.8805 10.504 14.0296 10.6034 14.1956 10.6644C14.3615 10.7253 14.5395 10.746 14.715 10.7247L21.1268 9.93065C21.485 9.88659 21.846 9.98647 22.1306 10.2083C22.4152 10.4302 22.6001 10.756 22.6448 11.1141L22.7846 12.2429Z" stroke="white"/>
</svg>
