<svg width="26" height="29" viewBox="0 0 26 29" fill="none" xmlns="http://www.w3.org/2000/svg">
<path d="M13.6306 27.0229L12.9015 25.6174L12.9015 25.6174L13.6306 27.0229ZM12.3701 27.0229L13.0991 25.6174L13.0991 25.6174L12.3701 27.0229ZM22.5003 13.0833C22.5003 16.4808 20.7712 19.2835 18.6132 21.4601C16.4567 23.6353 14.0045 25.0454 12.9015 25.6174L14.3596 28.4285C15.6046 27.7827 18.3789 26.1942 20.862 23.6896C23.3436 21.1866 25.667 17.6284 25.667 13.0833H22.5003ZM13.0003 3.58333C18.247 3.58333 22.5003 7.83663 22.5003 13.0833H25.667C25.667 6.08773 19.9959 0.416667 13.0003 0.416667V3.58333ZM3.50033 13.0833C3.50033 7.83663 7.75362 3.58333 13.0003 3.58333V0.416667C6.00472 0.416667 0.333659 6.08773 0.333659 13.0833H3.50033ZM13.0991 25.6174C11.9962 25.0454 9.54394 23.6353 7.38745 21.4601C5.2295 19.2835 3.50033 16.4808 3.50033 13.0833H0.333659C0.333659 17.6284 2.65705 21.1866 5.13866 23.6896C7.62173 26.1942 10.396 27.7827 11.6411 28.4285L13.0991 25.6174ZM12.9015 25.6174C12.9234 25.6061 12.958 25.5954 13.0003 25.5954C13.0427 25.5954 13.0773 25.6061 13.0991 25.6174L11.6411 28.4285C12.4985 28.8732 13.5021 28.8732 14.3596 28.4285L12.9015 25.6174ZM16.1667 13.4167C16.1667 15.1656 14.7489 16.5833 13 16.5833V19.75C16.4978 19.75 19.3333 16.9145 19.3333 13.4167H16.1667ZM13 10.25C14.7489 10.25 16.1667 11.6678 16.1667 13.4167H19.3333C19.3333 9.91886 16.4978 7.08333 13 7.08333V10.25ZM9.83333 13.4167C9.83333 11.6678 11.2511 10.25 13 10.25V7.08333C9.5022 7.08333 6.66667 9.91886 6.66667 13.4167H9.83333ZM13 16.5833C11.2511 16.5833 9.83333 15.1656 9.83333 13.4167H6.66667C6.66667 16.9145 9.5022 19.75 13 19.75V16.5833Z" fill="#FF4D35"/>
</svg>
