<svg width="29" height="29" viewBox="0 0 29 29" fill="none" xmlns="http://www.w3.org/2000/svg">
<path d="M11.2782 1.84178L11.2782 1.84168L11.2708 1.84836L2.22747 10.0548C1.20056 10.9653 0.614286 12.2849 0.614286 13.636V23.491C0.614286 26.1565 2.80747 28.3857 5.455 28.3857H23.545C26.2028 28.3857 28.2407 26.2847 28.3852 23.5111L28.3857 23.501V23.491V13.636C28.3857 12.2897 27.8029 10.9402 26.7703 10.0528L17.7292 1.84836L17.7293 1.84827L17.7218 1.84178C15.8221 0.205121 13.1779 0.205121 11.2782 1.84178ZM4.45396 12.7149L4.4779 12.699L4.4992 12.6796L13.5222 4.49161C13.8681 4.26603 14.1923 4.16671 14.5 4.16671C14.8284 4.16671 15.126 4.27745 15.3073 4.45874L15.3139 4.46535L15.3208 4.47164L24.3262 12.6437C24.595 13.0737 24.7793 13.3754 24.7793 13.771V23.626C24.7793 24.3888 24.1382 25.0223 23.41 25.0223H5.455C4.73056 25.0223 4.08571 24.3656 4.08571 23.626V13.771C4.08571 13.2315 4.21958 12.8712 4.45396 12.7149Z" fill="#FF4D35" stroke="#FF4D35" stroke-width="0.771429"/>
</svg>
