<svg width="34" height="33" viewBox="0 0 34 33" fill="none" xmlns="http://www.w3.org/2000/svg">
<path d="M22.7243 0.68376L22.658 0.857271L22.7243 0.683758C20.811 -0.0474904 18.6372 0.413319 17.1858 1.85789L12.3068 6.71402C10.7946 8.21911 10.3585 10.534 11.2225 12.4771C11.4578 13.0064 11.7119 13.5252 11.9823 14.0286L1.39288 24.618C1.11755 24.8933 0.962895 25.2667 0.962895 25.6561V31.1229C0.962895 31.9337 1.62014 32.5909 2.43093 32.5909H7.89773C8.70852 32.5909 9.36576 31.9337 9.36576 31.1229V29.112L11.3766 29.112C12.1874 29.112 12.8446 28.4547 12.8446 27.644V25.6332H14.8555C15.6663 25.6332 16.3235 24.9759 16.3235 24.1651C16.3235 23.3544 15.6663 22.6971 14.8555 22.6971H11.3766C10.5658 22.6971 9.90857 23.3544 9.90857 24.1651V26.1759L7.89772 26.176C7.08694 26.176 6.42969 26.8332 6.42969 27.644V29.6549H3.89897V26.2642L14.8507 15.3125C15.3289 14.8342 15.4186 14.0912 15.0678 13.5129L15.0678 13.5129C14.6423 12.8117 14.2512 12.0618 13.9055 11.2842L13.9055 11.2842C13.534 10.4486 13.723 9.44708 14.3782 8.79491L19.2572 3.93884C19.8907 3.3083 20.8405 3.10701 21.6762 3.42635C23.1033 3.97182 25.1503 4.97268 26.8318 6.64639L26.991 6.48651L26.8318 6.6464C28.5239 8.33052 29.5587 10.4085 30.1294 11.8616C30.4563 12.6941 30.2577 13.6397 29.6233 14.2711L24.6854 19.1859C24.0315 19.8367 23.0553 20.0276 22.1968 19.6705C21.4305 19.3518 20.6885 18.9732 19.9917 18.5455C19.3008 18.1214 18.3968 18.3378 17.9727 19.0288C17.5486 19.7198 17.7649 20.6238 18.4559 21.0479C19.2831 21.5556 20.1623 22.0042 21.0692 22.3814C23.0256 23.1952 25.2586 22.7579 26.7566 21.2669L31.6945 16.3522C33.1587 14.8948 33.6172 12.7109 32.8622 10.7885L32.669 10.8644L32.8622 10.7885C32.1926 9.08353 30.9618 6.61451 28.9029 4.56544C26.8512 2.52324 24.4078 1.32723 22.7243 0.68376Z" fill="#FF4D35" stroke="#FF4D35" stroke-width="0.451162"/>
</svg>
